<svg xmlns="http://www.w3.org/2000/svg" width="69.333" height="24.25" viewBox="386.95 2099.983 69.333 24.25"><g data-name="g12"><path d="m449.126 2103.618-1.647 3.989h.387l3.131-3.989h-1.87" fill="#fff" fill-rule="evenodd" data-name="path14"/><path d="M390.853 2113.286c-1.055 0-1.987-.264-2.671-.615l-.686.615h-.316l-.211-3.902.369-.035c1.107 2.531 2.408 3.34 3.62 3.34 1.266 0 2.004-.826 2.004-1.934 0-1.054-.404-1.564-2.056-2.25-.563-.227-1.213-.456-1.758-.72-1.23-.615-1.88-1.582-1.88-2.865 0-2.091 1.81-3.356 3.585-3.356.878 0 1.475.246 2.056.58l.685-.598h.3l.298 3.445-.351.052c-.967-1.932-2.004-2.882-3.146-2.882-1.002 0-1.67.668-1.67 1.705 0 .826.352 1.458 1.599 2.004.615.28 1.336.527 1.986.843 1.424.686 2.092 1.582 2.092 2.883 0 2.32-1.951 3.69-3.849 3.69" fill="#fff" fill-rule="evenodd" data-name="path16"/><path d="M400.08 2113.304c-2.672 0-3.99-1.916-3.99-4.253 0-2.162 1.511-4.236 4.218-4.236 2.671 0 3.954 1.898 3.954 4.218 0 2.18-1.476 4.27-4.183 4.27m.07-7.996c-1.229 0-1.985 1.37-1.985 3.779 0 2.373.809 3.725 2.056 3.725 1.283 0 1.986-1.37 1.986-3.778 0-2.372-.756-3.726-2.056-3.726" fill="#fff" fill-rule="evenodd" data-name="path18"/><path d="M408.076 2113.234c-1.388 0-1.827-.685-1.827-1.95v-5.256h-1.3v-.246l1.616-1.283 1.283-1.67h.263v2.285h2.672v.914h-2.672v4.552c0 .703.106 1.125.458 1.37.298.211.702.282 1.283.282.28 0 .632-.018.966-.036l.017.247c-.684.42-1.81.79-2.759.79" fill="#fff" fill-rule="evenodd" data-name="path20"/><path d="M416.284 2106.15c-.668 0-1.178.124-1.828.44v5.817l.984.369v.246h-3.971v-.246l1.106-.369v-10.615l-1.212-.79v-.176l3.023-.826.07.053v6.15l.07.036c1.038-.985 1.987-1.424 2.935-1.424 1.582 0 2.25 1.195 2.25 2.443v5.15l1.108.368v.246h-3.973v-.246l.984-.369v-4.429c0-1.142-.456-1.827-1.546-1.827" fill="#fff" fill-rule="evenodd" data-name="path22"/><path d="M423.421 2108.453c0 2.232.632 3.69 2.618 3.69.879 0 1.6-.175 2.654-.561l.105.21c-1.071.931-2.266 1.512-3.391 1.512-2.408 0-3.991-1.652-3.991-4.095 0-2.514 1.899-4.394 4.043-4.394 2.32 0 3.445 1.564 3.427 3.638h-5.465Zm3.497-.598c-.07-1.651-.544-2.548-1.582-2.548-1.02 0-1.81 1.072-1.898 2.707l3.48-.159" fill="#fff" fill-rule="evenodd" data-name="path24"/><path d="M433.562 2113.304c-.915 0-2.127-.211-2.97-.458v-11.054l-1.23-.79v-.176l3.04-.826.07.053v5.887l.07.035c.616-.615 1.46-1.16 2.548-1.16 1.67 0 3.181 1.53 3.181 4.042 0 2.514-1.897 4.447-4.71 4.447m.3-7.258c-.528 0-.968.105-1.39.28v5.572a2.65 2.65 0 0 0 1.917.808c1.036 0 1.897-.931 1.897-3.41 0-2.178-.931-3.25-2.425-3.25" fill="#fff" fill-rule="evenodd" data-name="path26"/><path d="M443.087 2113.566c-.879 2.162-1.704 3.112-2.794 3.112-.932 0-1.37-.545-1.37-1.108 0-.544.49-1 1.054-1 .597 0 .95.315 1.37.842.334-.369.738-1.002.967-1.494l.3-.667-3.111-7.504-1.074-.422v-.229h4.29v.229l-1.125.422 1.897 5.15h.088l1.722-5.027-1.018-.545v-.229h3.021v.229l-1.141.58-3.076 7.661" fill="#fff" fill-rule="evenodd" data-name="path28"/><path d="M453.107 2113.304a6.925 6.925 0 0 1-2.601-.475l-.018-2.32.351-.035c.95 1.67 1.67 2.302 2.601 2.302.827 0 1.336-.527 1.336-1.335 0-.914-.93-1.265-1.933-1.67-1.107-.474-2.285-1.001-2.285-2.46 0-1.388 1.23-2.496 3.023-2.496.686 0 1.652.14 2.127.316l.053 2.092-.335.088c-.86-1.424-1.423-1.969-2.231-1.969-.739 0-1.196.493-1.196 1.125 0 .914.95 1.283 1.95 1.687 1.108.458 2.303.984 2.303 2.478 0 1.635-1.44 2.672-3.145 2.672" fill="#fff" fill-rule="evenodd" data-name="path30"/><path d="M454.216 2124.141h.393v-1.801l1.375-2.288h-.42l-1.144 1.951-1.149-1.951h-.425l1.37 2.288v1.801Zm-3.531 0h.392v-3.725h1.32v-.364h-3.033v.364h1.32v3.725Zm-3.488 0h2.393v-.36h-2v-3.73h-.393v4.09Zm-3.371-1.608.702-2.034h.012l.701 2.034h-1.415Zm-.94 1.608h.382l.436-1.26h1.658l.437 1.26h.41l-1.45-4.106h-.425l-1.447 4.106Zm-3.062 0h2.56v-.36h-2.167v-1.623h1.53v-.355h-1.53v-1.387h2.05v-.364h-2.443v4.09Zm-3.652-2.183v-1.548h.95c.686 0 1.062.2 1.062.764 0 .59-.382.784-1.056.784h-.956Zm-.387 2.183h.387v-1.835h1.017l1 1.835h.442l-1.034-1.879c.592-.11.978-.442.978-1.105 0-.719-.508-1.105-1.42-1.105h-1.37v4.09Zm-4.736 0h2.393v-.36h-2.001v-3.73h-.392v4.09Zm-3.471-1.608.702-2.034h.01l.702 2.034h-1.414Zm-.94 1.608h.382l.437-1.26h1.657l.437 1.26h.41l-1.45-4.106h-.425l-1.447 4.106Zm-4.116 0h.37v-3.476h.01l2.327 3.476h.349v-4.09h-.371v3.372h-.011l-2.255-3.371h-.42v4.09Zm-2.98-.276c-.773 0-1.332-.657-1.332-1.768 0-1.112.559-1.763 1.332-1.763.774 0 1.332.651 1.332 1.763 0 1.11-.558 1.768-1.332 1.768Zm0 .354c1 0 1.724-.84 1.724-2.122 0-1.283-.724-2.123-1.724-2.123s-1.725.84-1.725 2.123c0 1.282.725 2.122 1.725 2.122Zm-3.294-.078h.393v-4.09h-.393v4.09Zm-2.652 0h.392v-3.725h1.32v-.364h-3.033v.364h1.32v3.725Zm-3.958-1.608.702-2.034h.011l.703 2.034h-1.416Zm-.939 1.608h.381l.436-1.26h1.659l.436 1.26h.41l-1.449-4.106h-.425l-1.448 4.106Zm-4.112 0h.37v-3.476h.011l2.327 3.476h.349v-4.09h-.371v3.372h-.011l-2.255-3.371h-.42v4.09Zm-3.764-2.183v-1.548h.95c.687 0 1.062.2 1.062.764 0 .59-.38.784-1.056.784h-.956Zm-.387 2.183h.387v-1.835h1.017l1 1.835h.443l-1.034-1.879c.591-.11.978-.442.978-1.105 0-.719-.509-1.105-1.42-1.105h-1.37v4.09Zm-3.62 0h2.559v-.36h-2.166v-1.623h1.53v-.355h-1.53v-1.387h2.05v-.364h-2.443v4.09Zm-2.597 0h.393v-3.725h1.32v-.364h-3.034v.364h1.32v3.725Zm-5.262 0h.37v-3.476h.012l2.327 3.476h.348v-4.09h-.37v3.372h-.012l-2.254-3.371h-.42v4.09Zm-1.807 0h.393v-4.09h-.393v4.09" fill="#fff" fill-rule="evenodd" data-name="path32"/></g></svg>