<svg xmlns="http://www.w3.org/2000/svg" width="35.983" height="35.983" viewBox="-0.283 -0.017 35.983 35.983"><path d="M757.132 1672.461a17.925 17.925 0 0 1-12.712-5.266 17.911 17.911 0 0 1-5.265-12.711c0-.885.065-1.773.193-2.642a.606.606 0 0 1 1.199.177c-.12.81-.18 1.64-.18 2.465a16.717 16.717 0 0 0 4.91 11.855 16.71 16.71 0 0 0 11.855 4.91 16.714 16.714 0 0 0 11.855-4.91 16.707 16.707 0 0 0 4.91-11.855 16.708 16.708 0 0 0-4.91-11.855 16.72 16.72 0 0 0-11.855-4.91.605.605 0 1 1 0-1.212 17.919 17.919 0 0 1 12.712 5.266 17.91 17.91 0 0 1 5.265 12.71 17.912 17.912 0 0 1-5.265 12.712 17.925 17.925 0 0 1-12.712 5.266Z" fill-rule="evenodd" fill="url(&quot;#a&quot;)" transform="translate(-739.423 -1636.507)" data-name="Path 7665"/><defs><linearGradient x1="0" y1=".5" x2="1" y2=".5" id="a"><stop stop-color="#1d1d1b" offset="0"/><stop stop-color="#312d22" offset=".165"/><stop stop-color="#655735" offset=".503"/><stop stop-color="#b99b54" offset=".983"/><stop stop-color="#bd9e56" offset="1"/><stop stop-color="#931d80" offset="1"/></linearGradient></defs></svg>