<svg xmlns="http://www.w3.org/2000/svg" width="60" height="60.017" viewBox="3228 -2438 60 60.017"><g data-name="Group 4752"><path d="M770.997 48C754.101 48 741 60.381 741 77.097c0 8.745 3.585 16.304 9.42 21.524a2.37 2.37 0 0 1 .802 1.71l.165 5.339c.052 1.702 1.807 2.812 3.367 2.122l5.954-2.625a2.41 2.41 0 0 1 1.605-.12 32.814 32.814 0 0 0 8.684 1.155c16.896 0 29.998-12.381 29.998-29.097S787.893 48 770.997 48Z" fill-rule="evenodd" fill="url(&quot;#a&quot;)" transform="translate(2487 -2486)" data-name="Path"/><path d="m3239.984-2400.39 8.812-13.98a4.502 4.502 0 0 1 6.51-1.2l7.01 5.258a1.8 1.8 0 0 0 2.168-.008l9.464-7.184c1.26-.96 2.91.555 2.07 1.897l-8.819 13.971a4.502 4.502 0 0 1-6.51 1.2l-7.011-5.257a1.8 1.8 0 0 0-2.168.008l-9.464 7.184c-1.26.96-2.91-.547-2.062-1.89Z" fill="#fff" fill-rule="evenodd" data-name="Path"/></g><defs><radialGradient fx=".193" fy=".995" cx=".193" cy=".995" fr="0" r="1.09" gradientTransform="matrix(1.00009 0 0 1 0 0)" id="a"><stop stop-color="#09f" offset="0"/><stop stop-color="#a033ff" offset=".61"/><stop stop-color="#ff5280" offset=".935"/><stop stop-color="#ff7061" offset="1"/></radialGradient></defs></svg>