<svg xmlns="http://www.w3.org/2000/svg" width="60.017" height="60.017" viewBox="2.45 3.95 60.017 60.017"><path d="M32.45 3.958c-16.567 0-30 13.431-30 30 0 12.284 7.387 22.837 17.957 27.477-.084-2.095-.015-4.61.522-6.889.577-2.435 3.86-16.347 3.86-16.347s-.958-1.915-.958-4.746c0-4.446 2.577-7.766 5.785-7.766 2.73 0 4.048 2.05 4.048 4.504 0 2.743-1.75 6.846-2.65 10.646-.751 3.182 1.596 5.778 4.735 5.778 5.684 0 9.512-7.3 9.512-15.95 0-6.575-4.428-11.496-12.483-11.496-9.1 0-14.769 6.786-14.769 14.367 0 2.613.77 4.456 1.978 5.883.555.656.632.92.431 1.672-.144.553-.474 1.881-.611 2.408-.2.76-.815 1.031-1.502.75-4.192-1.71-6.144-6.3-6.144-11.46 0-8.522 7.187-18.74 21.44-18.74 11.454 0 18.993 8.288 18.993 17.184 0 11.769-6.543 20.56-16.187 20.56-3.239 0-6.285-1.75-7.33-3.739 0 0-1.74 6.913-2.11 8.247-.636 2.313-1.88 4.625-3.02 6.427a29.976 29.976 0 0 0 8.503 1.23c16.567 0 29.998-13.431 29.998-30 0-16.569-13.431-30-29.998-30Z" fill="#bc061b" fill-rule="evenodd" data-name="Path 27327"/></svg>