<svg xmlns="http://www.w3.org/2000/svg" width="60" height="48.8" viewBox="2809 -2292.017 60 48.8"><path d="M2869-2286.228a24.616 24.616 0 0 1-7.07 1.939 12.35 12.35 0 0 0 5.412-6.81 24.635 24.635 0 0 1-7.817 2.986 12.294 12.294 0 0 0-8.985-3.887c-6.798 0-12.31 5.512-12.31 12.31 0 .964.11 1.904.32 2.805-10.231-.514-19.302-5.414-25.373-12.862a12.251 12.251 0 0 0-1.667 6.189c0 4.27 2.174 8.038 5.477 10.246a12.26 12.26 0 0 1-5.576-1.54l-.001.155c0 5.964 4.243 10.94 9.874 12.07a12.335 12.335 0 0 1-5.559.211c1.567 4.89 6.113 8.45 11.5 8.549a24.697 24.697 0 0 1-15.289 5.27 24.97 24.97 0 0 1-2.936-.173 34.84 34.84 0 0 0 18.87 5.531c22.642 0 35.023-18.757 35.023-35.024 0-.534-.012-1.065-.036-1.593a25.01 25.01 0 0 0 6.143-6.372Z" fill="#179bdb" fill-rule="evenodd" data-name="Path 27326"/></svg>