<svg xmlns="http://www.w3.org/2000/svg" width="59.767" height="60.033" viewBox="-0.017 -0.017 59.767 60.033"><path d="M51.029 8.72C45.414 3.1 37.946.002 29.99 0 13.597 0 .256 13.337.25 29.73a29.67 29.67 0 0 0 3.97 14.863L0 60l15.766-4.134a29.722 29.722 0 0 0 14.212 3.618h.013c16.39 0 29.734-13.338 29.74-29.731.003-7.944-3.087-15.414-8.702-21.034ZM29.99 54.462h-.01a24.69 24.69 0 0 1-12.582-3.444l-.903-.536-9.355 2.454 2.497-9.12-.588-.934a24.648 24.648 0 0 1-3.78-13.151C5.277 16.106 16.366 5.022 30 5.022a24.557 24.557 0 0 1 17.476 7.247A24.557 24.557 0 0 1 54.71 29.75c-.006 13.627-11.095 24.712-24.72 24.712ZM43.55 35.955c-.744-.371-4.397-2.168-5.078-2.417-.681-.247-1.177-.371-1.672.372-.496.744-1.92 2.417-2.353 2.913-.434.496-.867.558-1.61.186-.744-.372-3.138-1.156-5.976-3.687-2.21-1.97-3.7-4.403-4.134-5.146-.434-.744-.047-1.146.326-1.517.334-.332.743-.867 1.114-1.301.372-.434.496-.744.744-1.24.247-.496.123-.93-.063-1.3-.185-.373-1.672-4.03-2.29-5.517-.604-1.449-1.217-1.252-1.673-1.275A29.461 29.461 0 0 0 19.461 16c-.495 0-1.3.186-1.982.93-.68.743-2.6 2.54-2.6 6.197 0 3.656 2.662 7.189 3.034 7.685.371.496 5.24 8 12.694 11.217a42.637 42.637 0 0 0 4.237 1.565c1.78.565 3.4.486 4.68.294 1.428-.213 4.397-1.797 5.017-3.532.619-1.736.619-3.223.433-3.533-.186-.31-.681-.495-1.424-.868Z" fill="#3eb554" fill-rule="evenodd" data-name="Path 27328"/></svg>