<svg xmlns="http://www.w3.org/2000/svg" width="59.85" height="14.667" viewBox="65.983 2104.983 59.85 14.667"><g data-name="Group 3236"><path d="M84.496 2117.144v-.307c-.042-.538-.142-1.026-.318-1.448-.351-.845-.944-1.639-1.447-2.479-.934-1.558-1.984-3.359-2.924-4.93-.773-1.293-1.494-2.954-3.415-2.98-1.997-.026-2.662 1.671-3.386 2.897-2.302 3.892-7.005 11.725-7.005 11.725h2.17s4.488-7.64 6.716-11.502c.285-.494.85-1.142 1.505-1.142.995 0 1.492 1.14 1.94 1.922 1.196 2.096 2.35 4.102 3.473 6.127.353.637 1.07 1.475.578 2.34-.32.564-.965.529-1.88.529-.002.014-8.858 0-8.858 0v1.726h8.047s1.894.056 2.663-.083c1.27-.23 1.961-1.178 2.141-2.395Z" fill="#fff" fill-rule="evenodd" data-name="Path 1"/><path d="M81.239 2107.49v.306c.042.538.143 1.026.318 1.448.352.845.944 1.639 1.448 2.48.933 1.558 1.983 3.359 2.923 4.929.773 1.293 1.494 2.954 3.415 2.98 1.998.027 2.662-1.67 3.387-2.897 2.301-3.892 7.004-11.725 7.004-11.725h-2.17s-4.488 7.64-6.716 11.503c-.284.493-.849 1.142-1.505 1.142-.995 0-1.492-1.14-1.939-1.922-1.197-2.096-2.35-4.103-3.473-6.128-.353-.636-1.07-1.474-.579-2.339.32-.564.965-.53 1.881-.53.001-.014 8.857 0 8.857 0v-1.726h-8.046s-1.895-.055-2.663.083c-1.27.23-1.962 1.179-2.142 2.396Z" fill="#fff" fill-rule="evenodd" data-name="Path 2"/><path d="M110.578 2117.144v-.307c-.042-.538-.143-1.026-.318-1.448-.351-.845-.944-1.639-1.447-2.479-.934-1.558-1.984-3.359-2.924-4.93-.773-1.293-1.494-2.954-3.415-2.98-1.997-.026-2.662 1.671-3.387 2.897a2875.403 2875.403 0 0 1-7.004 11.725h2.17s4.488-7.64 6.716-11.502c.285-.494.85-1.142 1.505-1.142.995 0 1.492 1.14 1.939 1.922 1.197 2.096 2.35 4.102 3.473 6.127.354.637 1.07 1.475.58 2.34-.32.564-.966.529-1.882.529-.001.014-8.857 0-8.857 0v1.726h8.047s1.894.056 2.662-.083c1.271-.23 1.962-1.178 2.142-2.395Z" fill="#fff" fill-rule="evenodd" data-name="Path 3"/><path d="M107.32 2107.49v.306c.043.538.144 1.026.32 1.448.35.845.943 1.639 1.446 2.48.934 1.558 1.985 3.359 2.924 4.929.773 1.293 1.495 2.954 3.415 2.98 1.997.027 2.662-1.67 3.387-2.897a2851.79 2851.79 0 0 1 7.004-11.725h-2.17s-4.488 7.64-6.716 11.503c-.284.493-.85 1.142-1.505 1.142-.994 0-1.492-1.14-1.939-1.922-1.197-2.096-2.35-4.103-3.473-6.128-.353-.636-1.07-1.474-.58-2.339.32-.564.966-.53 1.882-.53.001-.014 8.857 0 8.857 0v-1.726h-8.046s-1.895-.055-2.663.083c-1.271.23-1.962 1.179-2.142 2.396Z" fill="#fff" fill-rule="evenodd" data-name="Path 4"/></g></svg>